<svg version="1.1" xmlns="http://www.w3.org/2000/svg" width="32" height="32" viewBox="0 0 32 32">
    <title>favicon</title>
    <style>
        #tt { stroke: black; fill: black }

        @media (prefers-color-scheme: dark) {
        #tt { stroke: white; fill: white }
        }
    </style>
    <g id="favicon">
        <path id="tt" d="M22.896 5.389v3.683c-1.569 0-2.337-0.224-2.626 0.608-0.192 0.576-0.384 3.266 0.64 3.266h1.954v8.838c0 1.922 0.576 3.746 1.89 4.707 1.922 1.377 6.34 1.121 6.981-0.032 0.321-0.576 0.48-3.426-0.289-3.426-0.576 0-0.289 0.384-2.177 0.384-1.505 0-1.697-1.569-1.697-3.074v-7.397h3.683c0.865 0 0.736-1.793 0.736-2.498 0-0.64-0.16-1.377-0.8-1.377h-3.619v-3.746c0-0.929-2.305-0.736-3.138-0.736-0.672 0-1.569 0.128-1.569 0.801zM10.439 5.325v3.938h-2.434c-0.544 0-0.512 1.185-0.512 1.569 0 1.377 0.993 1.057 2.946 1.057v9.51c0 2.401 0.352 4.419 2.273 5.475 1.473 0.801 5.284 0.672 5.7-0.448 0.16-0.448 0.32-2.209-0.289-2.209-0.544 0-4.515 2.273-4.515-2.818v-9.51h4.067c1.217 0 0.929-1.793 0.801-2.177-0.096-0.257-0.257-0.448-0.544-0.448h-4.323v-4.067c0-0.64-1.633-0.512-2.113-0.512s-1.057 0.16-1.057 0.64zM0.001 24.602c0 1.954 0 2.626 2.241 2.626 1.473 0 1.825-0.801 1.825-2.177 0-0.64-0.128-1.332-0.384-1.697-0.416-0.544-3.683-1.281-3.683 1.249z"></path>
    </g>
</svg>
